<svg viewBox="0 0 1120 860" xmlns="http://www.w3.org/2000/svg" role="img" aria-label="Illustration de Marseille : la colline de Notre-Dame de la Garde au coucher du soleil">
  <defs>
    <linearGradient id="hillGrad" x1="0" y1="0" x2="0" y2="1">
      <stop offset="0" stop-color="#8fb3dd"/>
      <stop offset="1" stop-color="#1c4a80"/>
    </linearGradient>
    <linearGradient id="sunGrad" x1="0" y1="0" x2="1" y2="1">
      <stop offset="0" stop-color="#fbcd7a"/>
      <stop offset="1" stop-color="#f5ab3f"/>
    </linearGradient>
    <linearGradient id="seaGrad" x1="0" y1="0" x2="0" y2="1">
      <stop offset="0" stop-color="#bcd7ef" stop-opacity="0.55"/>
      <stop offset="1" stop-color="#5c8fc9" stop-opacity="0.85"/>
    </linearGradient>
  </defs>

  <!-- soleil -->
  <circle cx="560" cy="235" r="72" fill="url(#sunGrad)"/>

  <!-- nuages -->
  <g fill="#e2ecf9" opacity="0.9">
    <ellipse cx="205" cy="235" rx="70" ry="26"/>
    <ellipse cx="255" cy="222" rx="50" ry="24"/>
    <ellipse cx="160" cy="228" rx="45" ry="20"/>
  </g>
  <g fill="#e2ecf9" opacity="0.85">
    <ellipse cx="915" cy="210" rx="55" ry="20"/>
    <ellipse cx="960" cy="222" rx="38" ry="17"/>
  </g>

  <!-- colline -->
  <path d="M110,790 C170,640 300,470 430,380 C480,345 525,318 560,292 C598,318 645,348 700,385 C825,470 950,640 1010,790 Z" fill="url(#hillGrad)"/>

  <!-- basilique Notre-Dame de la Garde (silhouette) -->
  <g fill="#3f6ea5">
    <!-- statue + fleche -->
    <circle cx="682" cy="24" r="6"/>
    <rect x="679" y="30" width="6" height="22"/>
    <polygon points="662,110 702,110 692,52 672,52"/>
    <!-- tour carree -->
    <rect x="650" y="110" width="64" height="150"/>
    <polygon points="650,110 658,96 706,96 714,110"/>
    <rect x="650" y="102" width="10" height="10"/>
    <rect x="668" y="96" width="10" height="10"/>
    <rect x="686" y="96" width="10" height="10"/>
    <rect x="704" y="102" width="10" height="10"/>
    <!-- dome -->
    <circle cx="592" cy="196" r="34"/>
    <rect x="586" y="160" width="12" height="20"/>
    <circle cx="592" cy="156" r="7"/>
    <rect x="562" y="222" width="60" height="60"/>
    <!-- murs / remparts -->
    <path d="M470,300 L470,270 L490,270 L490,255 L520,255 L520,240 L560,240 L560,255 L610,255 L610,240 L650,240 L650,282 L730,282 L730,300 Z"/>
    <rect x="478" y="256" width="10" height="10"/>
    <rect x="500" y="242" width="10" height="10"/>
    <rect x="530" y="228" width="10" height="10"/>
  </g>

  <!-- maisons en cascade sur le flanc droit -->
  <g>
    <g>
      <rect x="700" y="392" width="58" height="42" fill="#f3f7fc"/>
      <polygon points="695,392 763,392 729,368" fill="#2a5da0"/>
      <rect x="716" y="408" width="10" height="14" fill="#4a7fb8"/>
      <rect x="734" y="408" width="10" height="14" fill="#4a7fb8"/>
    </g>
    <g>
      <rect x="760" y="418" width="66" height="48" fill="#eef4fb"/>
      <polygon points="754,418 832,418 793,392" fill="#6f9ccf"/>
      <rect x="778" y="436" width="12" height="16" fill="#3f6ea5"/>
      <rect x="800" y="436" width="12" height="16" fill="#3f6ea5"/>
    </g>
    <g>
      <rect x="650" y="440" width="56" height="42" fill="#f3f7fc"/>
      <polygon points="645,440 712,440 678,416" fill="#2a5da0"/>
      <rect x="666" y="456" width="10" height="14" fill="#4a7fb8"/>
    </g>
    <g>
      <rect x="820" y="452" width="70" height="52" fill="#eef4fb"/>
      <polygon points="814,452 896,452 855,424" fill="#2a5da0"/>
      <rect x="840" y="472" width="12" height="16" fill="#3f6ea5"/>
      <rect x="864" y="472" width="12" height="16" fill="#3f6ea5"/>
    </g>
    <g>
      <rect x="590" y="470" width="60" height="46" fill="#f3f7fc"/>
      <polygon points="584,470 656,470 620,444" fill="#6f9ccf"/>
      <rect x="608" y="488" width="11" height="15" fill="#4a7fb8"/>
      <rect x="628" y="488" width="11" height="15" fill="#4a7fb8"/>
    </g>
    <g>
      <rect x="880" y="500" width="76" height="58" fill="#eef4fb"/>
      <polygon points="873,500 962,500 917,468" fill="#2a5da0"/>
      <rect x="902" y="522" width="13" height="18" fill="#3f6ea5"/>
      <rect x="928" y="522" width="13" height="18" fill="#3f6ea5"/>
    </g>
    <g>
      <rect x="720" y="480" width="64" height="48" fill="#eef4fb"/>
      <polygon points="714,480 790,480 752,454" fill="#6f9ccf"/>
      <rect x="740" y="500" width="12" height="16" fill="#3f6ea5"/>
      <rect x="762" y="500" width="12" height="16" fill="#3f6ea5"/>
    </g>
    <g>
      <rect x="640" y="520" width="80" height="60" fill="#f3f7fc"/>
      <polygon points="632,520 726,520 678,490" fill="#2a5da0"/>
      <rect x="664" y="544" width="14" height="18" fill="#4a7fb8"/>
      <rect x="690" y="544" width="14" height="18" fill="#4a7fb8"/>
    </g>
    <g>
      <rect x="820" y="558" width="90" height="70" fill="#eef4fb"/>
      <polygon points="812,558 918,558 865,522" fill="#6f9ccf"/>
      <rect x="846" y="586" width="16" height="20" fill="#3f6ea5"/>
      <rect x="876" y="586" width="16" height="20" fill="#3f6ea5"/>
    </g>
    <g>
      <rect x="720" y="588" width="96" height="76" fill="#ffffff"/>
      <polygon points="712,588 824,588 768,548" fill="#2a5da0"/>
      <rect x="740" y="618" width="18" height="24" fill="#3f6ea5"/>
      <rect x="772" y="618" width="18" height="24" fill="#3f6ea5"/>
      <rect x="804" y="618" width="12" height="46" fill="#3f6ea5"/>
    </g>
  </g>

  <!-- buissons et cypres -->
  <g fill="#204a3a">
    <ellipse cx="900" cy="700" rx="46" ry="34"/>
    <ellipse cx="960" cy="716" rx="34" ry="26"/>
    <ellipse cx="606" cy="700" rx="30" ry="22"/>
  </g>
  <g fill="#1a3d30">
    <path d="M700,760 C688,700 692,640 700,590 C708,640 712,700 700,760 Z"/>
    <ellipse cx="700" cy="620" rx="20" ry="10"/>
    <ellipse cx="700" cy="655" rx="24" ry="11"/>
    <ellipse cx="700" cy="695" rx="27" ry="12"/>
  </g>

  <!-- voilier -->
  <g>
    <path d="M110,590 Q160,600 220,588 L200,606 Q150,614 118,604 Z" fill="#eef4fb"/>
    <rect x="162" y="520" width="3" height="70" fill="#3f6ea5"/>
    <path d="M165,524 L165,588 L128,588 Z" fill="#ffffff"/>
    <path d="M165,540 L165,588 L196,588 Z" fill="#dce8f7"/>
  </g>

  <!-- mer -->
  <rect x="0" y="740" width="1120" height="120" fill="url(#seaGrad)"/>
  <path d="M0,772 Q60,758 120,772 T240,772 T360,772 T480,772 T600,772 T720,772 T840,772 T960,772 T1080,772 L1120,772 L1120,860 L0,860 Z" fill="#3f6ea5" opacity="0.25"/>
  <path d="M0,800 Q60,786 120,800 T240,800 T360,800 T480,800 T600,800 T720,800 T840,800 T960,800 T1080,800 L1120,800 L1120,860 L0,860 Z" fill="#2a5da0" opacity="0.3"/>
</svg>
